<svg height="512pt" viewBox="0 0 512 512" width="512pt" xmlns="http://www.w3.org/2000/svg"><path d="m80.988281 75.132812c-4.148437 0-7.511719-3.363281-7.511719-7.511718v-47.804688c0-4.148437 3.363282-7.507812 7.511719-7.507812 4.144531 0 7.507813 3.359375 7.507813 7.507812v47.804688c0 4.148437-3.363282 7.511718-7.507813 7.511718zm0 0" fill="#c9f0ff"/><path d="m113.058594 49.28125h-73.289063c-2.839843 0-5.136719 2.300781-5.136719 5.136719v56.933593h83.5625v-56.933593c0-2.835938-2.296874-5.136719-5.136718-5.136719zm0 0" fill="#fa0"/><path d="m118.199219 54.417969v56.933593h-18.070313v-56.933593c0-2.835938-2.300781-5.136719-5.136718-5.136719h18.070312c2.835938 0 5.136719 2.300781 5.136719 5.136719zm0 0" fill="#ff9500"/><path d="m131.738281 97.125h-110.648437c-2.835938 0-5.136719 2.300781-5.136719 5.136719v53.601562h120.921875v-53.601562c0-2.835938-2.300781-5.136719-5.136719-5.136719zm0 0" fill="#ffcd6b"/><path d="m136.875 102.257812v53.605469h-18.007812v-53.605469c0-2.835937-2.300782-5.136718-5.136719-5.136718h18.007812c2.835938 0 5.136719 2.300781 5.136719 5.136718zm0 0" fill="#ffc143"/><path d="m352.046875 1.664062c-2.027344-2.210937-5.519531-2.21875-7.554687-.015624l-52.046876 56.316406v15.152344h111.230469v-15.152344zm0 0" fill="#ea4444"/><path d="m152.828125 511.226562h-152.828125v-361.292968c0-2.835938 2.300781-5.136719 5.136719-5.136719h142.554687c2.839844 0 5.136719 2.300781 5.136719 5.136719zm0 0" fill="#fa0"/><path d="m83.273438 170.09375h-43.949219c-4.136719 0-7.488281 3.351562-7.488281 7.488281s3.351562 7.488281 7.488281 7.488281h43.949219c4.136718 0 7.488281-3.351562 7.488281-7.488281s-3.351563-7.488281-7.488281-7.488281zm0 0" fill="#ffcd6b"/><path d="m83.273438 208.058594h-43.949219c-4.136719 0-7.488281 3.351562-7.488281 7.488281s3.351562 7.488281 7.488281 7.488281h43.949219c4.136718 0 7.488281-3.351562 7.488281-7.488281s-3.351563-7.488281-7.488281-7.488281zm0 0" fill="#ffcd6b"/><path d="m83.273438 246.023438h-43.949219c-4.136719 0-7.488281 3.351562-7.488281 7.488281s3.351562 7.488281 7.488281 7.488281h43.949219c4.136718 0 7.488281-3.351562 7.488281-7.488281s-3.351563-7.488281-7.488281-7.488281zm0 0" fill="#ffcd6b"/><path d="m83.273438 286.234375h-43.949219c-4.136719 0-7.488281 3.351563-7.488281 7.488281 0 4.136719 3.351562 7.488282 7.488281 7.488282h43.949219c4.136718 0 7.488281-3.351563 7.488281-7.488282 0-4.136718-3.351563-7.488281-7.488281-7.488281zm0 0" fill="#ffcd6b"/><path d="m83.273438 324.199219h-43.949219c-4.136719 0-7.488281 3.355469-7.488281 7.492187 0 4.136719 3.351562 7.488282 7.488281 7.488282h43.949219c4.136718 0 7.488281-3.351563 7.488281-7.488282 0-4.136718-3.351563-7.492187-7.488281-7.492187zm0 0" fill="#ffcd6b"/><path d="m83.273438 362.164062h-43.949219c-4.136719 0-7.488281 3.351563-7.488281 7.488282 0 4.136718 3.351562 7.488281 7.488281 7.488281h43.949219c4.136718 0 7.488281-3.351563 7.488281-7.488281 0-4.132813-3.351563-7.488282-7.488281-7.488282zm0 0" fill="#ffcd6b"/><path d="m83.273438 399.003906h-43.949219c-4.136719 0-7.488281 3.351563-7.488281 7.488282 0 4.136718 3.351562 7.488281 7.488281 7.488281h43.949219c4.136718 0 7.488281-3.351563 7.488281-7.488281 0-4.136719-3.351563-7.488282-7.488281-7.488282zm0 0" fill="#ffcd6b"/><path d="m152.832031 149.933594v361.289062h-23.167969v-361.289062c0-2.835938-2.300781-5.136719-5.136718-5.136719h23.167968c2.832032 0 5.136719 2.300781 5.136719 5.136719zm0 0" fill="#ff9500"/><path d="m512 511.226562h-108.324219v-425.71875h100.105469c4.539062 0 8.21875 3.679688 8.21875 8.21875zm0 0" fill="#c9f0ff"/><path d="m512 511.226562h-22.613281v-425.71875h14.394531c4.539062 0 8.21875 3.679688 8.21875 8.21875zm0 0" fill="#9ae7fd"/><path d="m419 242.441406v268.78125h-23.492188v-268.78125c0-2.832031-2.300781-5.136718-5.136718-5.136718h23.492187c2.839844 0 5.136719 2.304687 5.136719 5.136718zm0 0" fill="#d93131"/><path d="m404.113281 253.761719h-111.667969v-195.796875h111.667969zm0 0" fill="#fab2b2"/><path d="m404.109375 253.761719h-22.097656v-195.796875h22.097656zm0 0" fill="#f89696"/><path d="m403.675781 57.960938-21.667969.003906-43.96875-49.324219 6.453126-6.984375c2.035156-2.210938 5.527343-2.210938 7.558593.007812zm0 0" fill="#d93131"/><path d="m473.992188 123.957031h-21.574219c-4.253907 0-7.703125-3.449219-7.703125-7.703125 0-4.257812 3.449218-7.707031 7.703125-7.707031h21.574219c4.257812 0 7.707031 3.449219 7.707031 7.707031 0 4.253906-3.449219 7.703125-7.707031 7.703125zm0 0" fill="#0573cf"/><path d="m473.992188 173.183594h-21.574219c-4.253907 0-7.703125-3.449219-7.703125-7.707032 0-4.253906 3.449218-7.703124 7.703125-7.703124h21.574219c4.257812 0 7.707031 3.449218 7.707031 7.703124 0 4.257813-3.449219 7.707032-7.707031 7.707032zm0 0" fill="#0573cf"/><path d="m473.992188 222.40625h-21.574219c-4.253907 0-7.703125-3.449219-7.703125-7.707031 0-4.253907 3.449218-7.703125 7.703125-7.703125h21.574219c4.257812 0 7.707031 3.449218 7.707031 7.703125 0 4.257812-3.449219 7.707031-7.707031 7.707031zm0 0" fill="#0573cf"/><path d="m473.992188 271.628906h-21.574219c-4.253907 0-7.703125-3.449218-7.703125-7.707031 0-4.253906 3.449218-7.703125 7.703125-7.703125h21.574219c4.257812 0 7.707031 3.449219 7.707031 7.703125 0 4.257813-3.449219 7.707031-7.707031 7.707031zm0 0" fill="#0573cf"/><path d="m473.992188 320.851562h-21.574219c-4.253907 0-7.703125-3.449218-7.703125-7.703124 0-4.257813 3.449218-7.707032 7.703125-7.707032h21.574219c4.257812 0 7.707031 3.449219 7.707031 7.707032 0 4.253906-3.449219 7.703124-7.707031 7.703124zm0 0" fill="#0573cf"/><path d="m473.992188 370.074219h-21.574219c-4.253907 0-7.703125-3.449219-7.703125-7.703125 0-4.257813 3.449218-7.707032 7.703125-7.707032h21.574219c4.257812 0 7.707031 3.449219 7.707031 7.707032 0 4.253906-3.449219 7.703125-7.707031 7.703125zm0 0" fill="#0573cf"/><path d="m473.992188 419.300781h-21.574219c-4.253907 0-7.703125-3.449219-7.703125-7.707031 0-4.253906 3.449218-7.703125 7.703125-7.703125h21.574219c4.257812 0 7.707031 3.449219 7.707031 7.703125 0 4.257812-3.449219 7.707031-7.707031 7.707031zm0 0" fill="#0573cf"/><path d="m69.511719 511.226562v-222.007812c0-4.324219 3.914062-7.597656 8.171875-6.828125l152.753906 27.527344c3.304688.59375 5.707031 3.46875 5.707031 6.828125v194.480468zm0 0" fill="#0573cf"/><path d="m236.144531 316.75v194.476562h-16.921875v-199.195312c0-1.65625-.585937-3.195312-1.570312-4.398438l12.78125 2.285157c3.304687.597656 5.710937 3.472656 5.710937 6.832031zm0 0" fill="#005aaf"/><path d="m192.527344 511.226562h-79.398438v-78.542968c0-20.871094 16.917969-37.789063 37.789063-37.789063h3.820312c20.871094 0 37.789063 16.917969 37.789063 37.789063zm0 0" fill="#c9f0ff"/><path d="m192.523438 432.6875v78.535156h-15.410157v-78.535156c0-18.902344-13.878906-34.558594-31.988281-37.351562 1.890625-.289063 3.820312-.441407 5.792969-.441407h3.824219c20.863281 0 37.78125 16.917969 37.78125 37.792969zm0 0" fill="#9ae7fd"/><path d="m230.792969 62.496094c8.691406 0 15.742187-7.046875 15.742187-15.742188 0-8.691406-7.050781-15.742187-15.742187-15.742187-1.042969 0-2.058594.109375-3.046875.300781-.269532-16.707031-13.890625-30.175781-30.667969-30.175781-16.941406 0-30.679687 13.738281-30.679687 30.683593 0 1.917969.1875 3.792969.523437 5.617188-2.867187-3.890625-7.464844-6.421875-12.664063-6.421875-8.695312 0-15.742187 7.046875-15.742187 15.742187 0 8.691407 7.046875 15.742188 15.742187 15.742188h76.535157zm0 0" fill="#83afe4"/><path d="m246.535156 46.757812c0 7.140626-4.753906 13.167969-11.277344 15.089844.195313-1 .292969-2.019531.292969-3.074218 0-6.71875-4.421875-12.855469-10.804687-14.960938-3.34375-1.105469-6.054688.015625-8.089844-3.257812-1.457031-2.351563-1.078125-5.644532-2.101562-8.183594-1.519532-3.78125-3.804688-7.242188-6.671876-10.136719-5.726562-5.78125-13.648437-9.085937-21.785156-9.085937-6.007812 0-11.609375 1.726562-16.332031 4.714843 5.0625-9.929687 15.398437-16.730469 27.3125-16.730469 16.773437 0 30.402344 13.46875 30.664063 30.183594.988281-.199218 2.011718-.308594 3.054687-.308594 8.6875 0 15.738281 7.050782 15.738281 15.75zm0 0" fill="#5290d9"/><path d="m192.773438 219.839844c-6.144532 0-11.128907-4.984375-11.128907-11.128906 0-6.148438 4.984375-11.128907 11.128907-11.128907.738281 0 1.457031.074219 2.152343.210938.191407-11.8125 9.824219-21.332031 21.679688-21.332031 11.980469 0 21.691406 9.710937 21.691406 21.6875 0 1.359374-.132813 2.683593-.371094 3.972656 2.027344-2.75 5.277344-4.539063 8.953125-4.539063 6.148438 0 11.128906 4.980469 11.128906 11.128907 0 6.144531-4.980468 11.128906-11.128906 11.128906zm0 0" fill="#83afe4"/><path d="m257.941406 207.46875c.460938 4.230469-1.558594 8.402344-5.152344 10.675781.886719-.5625-1.015624-4.023437-1.398437-4.539062-.988281-1.332031-2.378906-2.355469-3.871094-3.054688-2.410156-1.125-4.808593-.875-7.367187-.355469-1.523438.3125-3.0625.566407-4.625.441407-2.46875-.199219-4.992188-1.292969-6.332032-3.378907-2.699218-4.210937-.164062-9.902343-3.042968-14.128906-2.472656-3.628906-7.328125-5.925781-11.539063-6.5625-7.503906-1.136718-14.429687 1.585938-19.078125 6.476563 2.527344-10.535157 12.757813-18.066407 24.402344-16.335938 10.957031 1.632813 18.714844 11.113281 18.34375 22.183594-.039062 1.101563-.160156 2.179687-.355469 3.230469 2.308594-3.125 6.195313-5.011719 10.484375-4.433594 4.992188.667969 8.984375 4.773438 9.53125 9.78125zm0 0" fill="#5290d9"/><path d="m418.996094 511.226562h-141.4375v-268.78125c0-2.835937 2.296875-5.136718 5.136718-5.136718h131.167969c2.835938 0 5.136719 2.300781 5.136719 5.136718v268.78125zm0 0" fill="#ea4444"/><path d="m376.613281 511.226562h-51.808593v-56.515624c0-2.839844 2.300781-5.136719 5.136718-5.136719h41.535156c2.839844 0 5.136719 2.296875 5.136719 5.136719zm0 0" fill="#ececf1"/><path d="m376.617188 454.710938v56.511718h-18.429688v-56.511718c0-2.835938-2.300781-5.136719-5.140625-5.136719h18.433594c2.835937 0 5.136719 2.300781 5.136719 5.136719zm0 0" fill="#d3d3d8"/><path d="m375.804688 118.683594c-4.136719 0-7.488282-3.351563-7.488282-7.488282v-12.675781c0-4.136719 3.351563-7.492187 7.488282-7.492187 4.136718 0 7.488281 3.355468 7.488281 7.492187v12.675781c0 4.136719-3.355469 7.488282-7.488281 7.488282zm0 0" fill="#ea4444"/><path d="m375.804688 161.4375c-4.136719 0-7.488282-3.351562-7.488282-7.488281v-12.679688c0-4.136719 3.351563-7.488281 7.488282-7.488281 4.136718 0 7.488281 3.351562 7.488281 7.488281v12.679688c0 4.136719-3.355469 7.488281-7.488281 7.488281zm0 0" fill="#ea4444"/><path d="m375.804688 204.1875c-4.136719 0-7.488282-3.351562-7.488282-7.488281v-12.675781c0-4.136719 3.351563-7.488282 7.488282-7.488282 4.136718 0 7.488281 3.351563 7.488281 7.488282v12.675781c0 4.136719-3.355469 7.488281-7.488281 7.488281zm0 0" fill="#ea4444"/><path d="m345.683594 118.683594c-4.136719 0-7.488282-3.351563-7.488282-7.488282v-12.675781c0-4.136719 3.351563-7.492187 7.488282-7.492187 4.136718 0 7.488281 3.355468 7.488281 7.492187v12.675781c0 4.136719-3.351563 7.488282-7.488281 7.488282zm0 0" fill="#ea4444"/><path d="m345.683594 161.4375c-4.136719 0-7.488282-3.351562-7.488282-7.488281v-12.679688c0-4.136719 3.351563-7.488281 7.488282-7.488281 4.136718 0 7.488281 3.351562 7.488281 7.488281v12.679688c0 4.136719-3.351563 7.488281-7.488281 7.488281zm0 0" fill="#ea4444"/><path d="m345.683594 204.1875c-4.136719 0-7.488282-3.351562-7.488282-7.488281v-12.675781c0-4.136719 3.351563-7.488282 7.488282-7.488282 4.136718 0 7.488281 3.351563 7.488281 7.488282v12.675781c0 4.136719-3.351563 7.488281-7.488281 7.488281zm0 0" fill="#ea4444"/><path d="m315.566406 118.683594c-4.136718 0-7.488281-3.351563-7.488281-7.488282v-12.675781c0-4.136719 3.351563-7.492187 7.488281-7.492187 4.136719 0 7.488282 3.355468 7.488282 7.492187v12.675781c0 4.136719-3.351563 7.488282-7.488282 7.488282zm0 0" fill="#ea4444"/><path d="m315.566406 161.4375c-4.136718 0-7.488281-3.351562-7.488281-7.488281v-12.679688c0-4.136719 3.351563-7.488281 7.488281-7.488281 4.136719 0 7.488282 3.351562 7.488282 7.488281v12.679688c0 4.136719-3.351563 7.488281-7.488282 7.488281zm0 0" fill="#ea4444"/><path d="m315.566406 204.1875c-4.136718 0-7.488281-3.351562-7.488281-7.488281v-12.675781c0-4.136719 3.351563-7.488282 7.488281-7.488282 4.136719 0 7.488282 3.351563 7.488282 7.488282v12.675781c0 4.136719-3.351563 7.488281-7.488282 7.488281zm0 0" fill="#ea4444"/><g fill="#fab2b2"><path d="m375.636719 287.140625c-4.136719 0-7.488281-3.351563-7.488281-7.488281v-16.789063c0-4.136719 3.351562-7.488281 7.488281-7.488281s7.488281 3.351562 7.488281 7.488281v16.789063c0 4.136718-3.351562 7.488281-7.488281 7.488281zm0 0"/><path d="m375.636719 333.972656c-4.136719 0-7.488281-3.351562-7.488281-7.488281v-16.789063c0-4.132812 3.351562-7.488281 7.488281-7.488281s7.488281 3.351563 7.488281 7.488281v16.789063c0 4.136719-3.351562 7.488281-7.488281 7.488281zm0 0"/><path d="m375.636719 379.839844c-4.136719 0-7.488281-3.351563-7.488281-7.488282v-16.789062c0-4.132812 3.351562-7.488281 7.488281-7.488281s7.488281 3.351562 7.488281 7.488281v16.789062c0 4.136719-3.351562 7.488282-7.488281 7.488282zm0 0"/><path d="m375.636719 426.425781c-4.136719 0-7.488281-3.351562-7.488281-7.488281v-16.789062c0-4.136719 3.351562-7.488282 7.488281-7.488282s7.488281 3.351563 7.488281 7.488282v16.789062c0 4.136719-3.351562 7.488281-7.488281 7.488281zm0 0"/><path d="m345.511719 287.140625c-4.136719 0-7.488281-3.351563-7.488281-7.488281v-16.789063c0-4.136719 3.351562-7.488281 7.488281-7.488281 4.132812 0 7.488281 3.351562 7.488281 7.488281v16.789063c0 4.136718-3.351562 7.488281-7.488281 7.488281zm0 0"/><path d="m345.511719 333.972656c-4.136719 0-7.488281-3.351562-7.488281-7.488281v-16.789063c0-4.132812 3.351562-7.488281 7.488281-7.488281 4.132812 0 7.488281 3.351563 7.488281 7.488281v16.789063c0 4.136719-3.351562 7.488281-7.488281 7.488281zm0 0"/><path d="m345.511719 379.839844c-4.136719 0-7.488281-3.351563-7.488281-7.488282v-16.789062c0-4.132812 3.351562-7.488281 7.488281-7.488281 4.132812 0 7.488281 3.351562 7.488281 7.488281v16.789062c0 4.136719-3.351562 7.488282-7.488281 7.488282zm0 0"/><path d="m345.511719 426.425781c-4.136719 0-7.488281-3.351562-7.488281-7.488281v-16.789062c0-4.136719 3.351562-7.488282 7.488281-7.488282 4.132812 0 7.488281 3.351563 7.488281 7.488282v16.789062c0 4.136719-3.351562 7.488281-7.488281 7.488281zm0 0"/><path d="m315.730469 287.140625c-4.136719 0-7.488281-3.351563-7.488281-7.488281v-16.789063c0-4.136719 3.351562-7.488281 7.488281-7.488281s7.488281 3.351562 7.488281 7.488281v16.789063c0 4.136718-3.351562 7.488281-7.488281 7.488281zm0 0"/><path d="m315.730469 333.972656c-4.136719 0-7.488281-3.351562-7.488281-7.488281v-16.789063c0-4.132812 3.351562-7.488281 7.488281-7.488281s7.488281 3.351563 7.488281 7.488281v16.789063c0 4.136719-3.351562 7.488281-7.488281 7.488281zm0 0"/><path d="m315.730469 379.839844c-4.136719 0-7.488281-3.351563-7.488281-7.488282v-16.789062c0-4.132812 3.351562-7.488281 7.488281-7.488281s7.488281 3.351562 7.488281 7.488281v16.789062c0 4.136719-3.351562 7.488282-7.488281 7.488282zm0 0"/><path d="m315.730469 426.425781c-4.136719 0-7.488281-3.351562-7.488281-7.488281v-16.789062c0-4.136719 3.351562-7.488282 7.488281-7.488282s7.488281 3.351563 7.488281 7.488282v16.789062c0 4.136719-3.351562 7.488281-7.488281 7.488281zm0 0"/></g><path d="m120.695312 338.679688c-4.136718 0-7.488281-3.351563-7.488281-7.488282v-10.558594c0-4.136718 3.351563-7.488281 7.488281-7.488281 4.136719 0 7.488282 3.351563 7.488282 7.488281v10.558594c0 4.136719-3.351563 7.488282-7.488282 7.488282zm0 0" fill="#c9f0ff"/><path d="m155.730469 338.679688c-4.136719 0-7.492188-3.351563-7.492188-7.488282v-10.558594c0-4.136718 3.355469-7.488281 7.492188-7.488281 4.132812 0 7.488281 3.351563 7.488281 7.488281v10.558594c0 4.136719-3.355469 7.488282-7.488281 7.488282zm0 0" fill="#c9f0ff"/><path d="m190.761719 338.679688c-4.136719 0-7.488281-3.351563-7.488281-7.488282v-10.558594c0-4.136718 3.351562-7.488281 7.488281-7.488281s7.488281 3.351563 7.488281 7.488281v10.558594c0 4.136719-3.351562 7.488282-7.488281 7.488282zm0 0" fill="#c9f0ff"/><path d="m120.695312 379.113281c-4.136718 0-7.488281-3.351562-7.488281-7.488281v-10.558594c0-4.132812 3.351563-7.488281 7.488281-7.488281 4.136719 0 7.488282 3.351563 7.488282 7.488281v10.558594c0 4.136719-3.351563 7.488281-7.488282 7.488281zm0 0" fill="#c9f0ff"/><path d="m155.730469 379.113281c-4.136719 0-7.492188-3.351562-7.492188-7.488281v-10.558594c0-4.132812 3.355469-7.488281 7.492188-7.488281 4.132812 0 7.488281 3.351563 7.488281 7.488281v10.558594c0 4.136719-3.355469 7.488281-7.488281 7.488281zm0 0" fill="#c9f0ff"/><path d="m190.761719 379.113281c-4.136719 0-7.488281-3.351562-7.488281-7.488281v-10.558594c0-4.132812 3.351562-7.488281 7.488281-7.488281s7.488281 3.351563 7.488281 7.488281v10.558594c0 4.136719-3.351562 7.488281-7.488281 7.488281zm0 0" fill="#c9f0ff"/><path d="m123.601562 170.09375h-11.328124c-4.132813 0-7.488282 3.351562-7.488282 7.488281s3.355469 7.488281 7.488282 7.488281h11.328124c4.136719 0 7.488282-3.351562 7.488282-7.488281s-3.351563-7.488281-7.488282-7.488281zm0 0" fill="#ffcd6b"/><path d="m123.601562 208.058594h-11.328124c-4.132813 0-7.488282 3.351562-7.488282 7.488281s3.355469 7.488281 7.488282 7.488281h11.328124c4.136719 0 7.488282-3.351562 7.488282-7.488281s-3.351563-7.488281-7.488282-7.488281zm0 0" fill="#ffcd6b"/><path d="m123.601562 246.023438h-11.328124c-4.132813 0-7.488282 3.351562-7.488282 7.488281s3.355469 7.488281 7.488282 7.488281h11.328124c4.136719 0 7.488282-3.351562 7.488282-7.488281s-3.351563-7.488281-7.488282-7.488281zm0 0" fill="#ffcd6b"/></svg>